<svg width="14" height="14" viewBox="0 0 14 14" fill="none" xmlns="http://www.w3.org/2000/svg">
<path d="M12.6438 8.55473L11.7483 7.7891C11.7907 7.52934 11.8126 7.2641 11.8126 6.99887C11.8126 6.73363 11.7907 6.4684 11.7483 6.20863L12.6438 5.44301C12.7114 5.38519 12.7597 5.30817 12.7824 5.22221C12.8051 5.13624 12.8011 5.0454 12.771 4.96176L12.7587 4.92621C12.5121 4.23719 12.143 3.59845 11.669 3.04086L11.6444 3.01215C11.5869 2.94454 11.5103 2.89595 11.4246 2.87276C11.339 2.84958 11.2483 2.85289 11.1645 2.88227L10.053 3.27738C9.64285 2.94106 9.18485 2.67582 8.68992 2.48988L8.47528 1.32777C8.45908 1.24033 8.41667 1.15989 8.35366 1.09713C8.29066 1.03437 8.21005 0.992262 8.12254 0.976407L8.08563 0.969571C7.37332 0.841055 6.6241 0.841055 5.9118 0.969571L5.87489 0.976407C5.78738 0.992262 5.70677 1.03437 5.64377 1.09713C5.58076 1.15989 5.53835 1.24033 5.52215 1.32777L5.30614 2.49535C4.81516 2.68133 4.35795 2.94642 3.95262 3.28012L2.83289 2.88227C2.74918 2.85266 2.65843 2.84922 2.57271 2.87242C2.487 2.89562 2.41037 2.94436 2.35301 3.01215L2.3284 3.04086C1.85501 3.59884 1.48591 4.23747 1.23875 4.92621L1.22645 4.96176C1.16493 5.13266 1.21551 5.32406 1.3536 5.44301L2.26004 6.21684C2.21766 6.47387 2.19715 6.73637 2.19715 6.9975C2.19715 7.26 2.21766 7.5225 2.26004 7.77817L1.3536 8.55199C1.28605 8.60982 1.23771 8.68683 1.215 8.7728C1.19229 8.85876 1.19628 8.9496 1.22645 9.03324L1.23875 9.06879C1.48621 9.75785 1.85262 10.3936 2.3284 10.9541L2.35301 10.9829C2.41051 11.0505 2.48714 11.0991 2.5728 11.1222C2.65847 11.1454 2.74915 11.1421 2.83289 11.1127L3.95262 10.7149C4.36004 11.0498 4.81532 11.3151 5.30614 11.4997L5.52215 12.6672C5.53835 12.7547 5.58076 12.8351 5.64377 12.8979C5.70677 12.9606 5.78738 13.0027 5.87489 13.0186L5.9118 13.0254C6.63065 13.1546 7.36678 13.1546 8.08563 13.0254L8.12254 13.0186C8.21005 13.0027 8.29066 12.9606 8.35366 12.8979C8.41667 12.8351 8.45908 12.7547 8.47528 12.6672L8.68992 11.5051C9.18465 11.3197 9.64524 11.0536 10.053 10.7176L11.1645 11.1127C11.2483 11.1423 11.339 11.1458 11.4247 11.1226C11.5104 11.0994 11.5871 11.0506 11.6444 10.9829L11.669 10.9541C12.1448 10.3922 12.5112 9.75785 12.7587 9.06879L12.771 9.03324C12.8325 8.86508 12.7819 8.67367 12.6438 8.55473ZM10.7776 6.36996C10.8118 6.57641 10.8296 6.78832 10.8296 7.00024C10.8296 7.21215 10.8118 7.42406 10.7776 7.63051L10.6874 8.17875L11.7087 9.05238C11.5539 9.40907 11.3584 9.74672 11.1263 10.0586L9.8575 9.60883L9.42821 9.96156C9.10145 10.2295 8.73778 10.4401 8.34403 10.5877L7.82313 10.7832L7.5784 12.1094C7.19227 12.1532 6.80243 12.1532 6.41629 12.1094L6.17157 10.7805L5.65477 10.5823C5.26512 10.4346 4.90282 10.2241 4.57879 9.95746L4.1495 9.60336L2.87254 10.0573C2.64012 9.74418 2.44598 9.40649 2.29012 9.05102L3.32235 8.16918L3.23348 7.62231C3.20067 7.41859 3.18289 7.20805 3.18289 7.00024C3.18289 6.79106 3.1993 6.58188 3.23348 6.37816L3.32235 5.83129L2.29012 4.94945C2.44461 4.59262 2.64012 4.25629 2.87254 3.9432L4.1495 4.39711L4.57879 4.04301C4.90282 3.77641 5.26512 3.56586 5.65477 3.4182L6.17293 3.2227L6.41766 1.89379C6.80184 1.85004 7.19422 1.85004 7.57977 1.89379L7.8245 3.21996L8.34539 3.41547C8.73778 3.56313 9.10282 3.77367 9.42957 4.04164L9.85887 4.39438L11.1276 3.94457C11.36 4.25766 11.5542 4.59535 11.71 4.95082L10.6888 5.82445L10.7776 6.36996ZM7.00008 4.45727C5.67118 4.45727 4.59383 5.53461 4.59383 6.86352C4.59383 8.19242 5.67118 9.26977 7.00008 9.26977C8.32899 9.26977 9.40633 8.19242 9.40633 6.86352C9.40633 5.53461 8.32899 4.45727 7.00008 4.45727ZM8.08289 7.94633C7.94087 8.08876 7.77209 8.2017 7.58626 8.27866C7.40043 8.35562 7.20122 8.39508 7.00008 8.39477C6.59129 8.39477 6.20711 8.23481 5.91727 7.94633C5.77484 7.80431 5.6619 7.63553 5.58494 7.4497C5.50798 7.26387 5.46852 7.06465 5.46883 6.86352C5.46883 6.45473 5.62879 6.07055 5.91727 5.7807C6.20711 5.49086 6.59129 5.33227 7.00008 5.33227C7.40887 5.33227 7.79305 5.49086 8.08289 5.7807C8.22532 5.92272 8.33827 6.09151 8.41523 6.27734C8.49219 6.46317 8.53164 6.66238 8.53133 6.86352C8.53133 7.27231 8.37137 7.65649 8.08289 7.94633Z" fill="#8C8C8C"/>
</svg>
